<svg xmlns="http://www.w3.org/2000/svg" version="1.1" xmlns:xlink="http://www.w3.org/1999/xlink" xmlns:svgjs="http://svgjs.dev/svgjs" width="1000" height="623" viewBox="0 0 1000 623"><g transform="matrix(1,0,0,1,-0.6060606060606233,0.2522267206477409)"><svg viewBox="0 0 396 247" data-background-color="#ffffff" preserveAspectRatio="xMidYMid meet" height="623" width="1000" xmlns="http://www.w3.org/2000/svg" xmlns:xlink="http://www.w3.org/1999/xlink"><g id="tight-bounds" transform="matrix(1,0,0,1,0.2400000000000091,-0.09999999999999432)"><svg viewBox="0 0 395.52 247.2" height="247.2" width="395.52"><g><svg></svg></g><g><svg viewBox="0 0 395.52 247.2" height="247.2" width="395.52"><g><g><path d="M54.151 198.011c-7.496 0-14.582-0.722-21.261-2.167-6.678-1.417-12.47-3.148-17.376-5.192-4.906-2.044-8.518-3.952-10.834-5.724v-36.592c6.542 3.68 14.787 7.114 24.735 10.303 9.949 3.216 20.988 4.824 33.117 4.824 4.906 0 8.559-0.654 10.957-1.962 2.371-1.281 3.557-3.557 3.557-6.828 0-3.48-2.59-6.409-7.771-8.785h47.041c0.532 2.734 0.798 5.594 0.798 8.58 0 13.083-5.247 23.604-15.741 31.564-10.494 7.986-26.235 11.979-47.222 11.979zM1 94.163c0-8.45 2.181-16.082 6.542-22.896 4.361-6.814 11.175-12.197 20.442-16.15 9.267-3.952 21.124-5.928 35.57-5.928 4.361 0 9.036 0.177 14.024 0.531 4.961 0.327 8.94 0.763 11.938 1.309l23.101 16.967-7.973 24.94-48.449-13.288c-5.588 0-9.703 1.158-12.347 3.476-2.671 2.317-4.007 5.111-4.007 8.381 0 3.952 2.249 7.087 6.746 9.404 0.261 0.134 0.528 0.269 0.803 0.403l-45.911 0c-0.319-2.243-0.479-4.626-0.479-7.149zM188.663 198.011c-7.496 0-14.582-0.722-21.26-2.167-6.678-1.417-12.47-3.148-17.376-5.192-4.906-2.044-8.518-3.952-10.835-5.724v-36.592c6.542 3.68 14.787 7.114 24.735 10.303 9.949 3.216 20.988 4.824 33.117 4.824 4.906 0 8.559-0.654 10.958-1.962 2.371-1.281 3.557-3.557 3.557-6.828 0-3.48-2.59-6.409-7.771-8.785h47.04c0.532 2.734 0.798 5.594 0.798 8.58 0 13.083-5.247 23.604-15.741 31.564-10.494 7.986-26.235 11.979-47.222 11.979zM135.512 94.163c0-8.45 2.181-16.082 6.542-22.896 4.361-6.814 11.175-12.197 20.443-16.15 9.267-3.952 21.124-5.928 35.57-5.928 4.361 0 9.036 0.177 14.023 0.531 4.961 0.327 8.94 0.763 11.939 1.309l23.1 16.967-7.973 24.94-48.449-13.288c-5.588 0-9.703 1.158-12.347 3.476-2.671 2.317-4.007 5.111-4.007 8.381 0 3.952 2.249 7.087 6.746 9.404 0.261 0.134 0.528 0.269 0.803 0.403l-45.911 0c-0.319-2.243-0.479-4.626-0.479-7.149zM312.954 195.967h-36.797l0-50.079 94.348 0c-1.435 0.677-2.929 1.288-4.482 1.834-8.94 3.135-19.134 4.702-30.582 4.702h-22.487v10.63l2.044 20.443zM276.157 84.146l-4.088-20.647 4.088-12.266h65.417c9.949 0 18.916 1.54 26.902 4.62 7.959 3.053 14.296 8.218 19.012 15.496 4.663 7.265 7.007 17.253 7.032 29.963l-38.228 0c-0.028-4.938-1.05-8.656-3.066-11.156-2.044-2.508-4.865-4.17-8.463-4.988-3.625-0.818-7.823-1.227-12.593-1.227h-21.26l0.976 17.371h-35.729z" fill="#7fdbff" fill-rule="nonzero" stroke="none" stroke-width="1" stroke-linecap="butt" stroke-linejoin="miter" stroke-miterlimit="10" stroke-dasharray="" stroke-dashoffset="0" font-family="none" font-weight="none" font-size="none" text-anchor="none" style="mix-blend-mode: normal" data-fill-palette-color="tertiary"></path></g></g><g transform="matrix(1,0,0,1,0,106.34716269321456)"><svg viewBox="0 0 395.52 34.50567461357087" height="34.50567461357087" width="395.52"><g><svg viewBox="0 0 395.52 34.50567461357087" height="34.50567461357087" width="395.52"><g><svg viewBox="0 0 395.52 34.50567461357087" height="34.50567461357087" width="395.52"><g><svg viewBox="0 0 395.52 34.50567461357087" height="34.50567461357087" width="395.52"><g id="textblocktransform"><svg viewBox="0 0 395.52 34.50567461357087" height="34.50567461357087" width="395.52" id="textblock"><g><svg viewBox="0 0 395.52 34.50567461357087" height="34.50567461357087" width="395.52"><g transform="matrix(1,0,0,1,0,0)"><svg width="395.52" viewBox="2.5 -37.8 575.39 49.949999999999996" height="34.50567461357087" data-palette-color="#0074d9"><path d="M15.5 0.5L15.5 0.5Q12.75 0.5 10.3-0.03 7.85-0.55 6.05-1.3 4.25-2.05 3.4-2.7L3.4-2.7 3.4-11.65Q5.8-10.3 9.45-9.13 13.1-7.95 17.55-7.95L17.55-7.95Q19.35-7.95 20.23-8.43 21.1-8.9 21.1-10.1L21.1-10.1Q21.1-11.4 19.13-12.28 17.15-13.15 12.9-14.45L12.9-14.45Q9.6-15.5 7.28-16.78 4.95-18.05 3.73-19.98 2.5-21.9 2.5-24.9L2.5-24.9Q2.5-28 4.1-30.5 5.7-33 9.1-34.45 12.5-35.9 17.8-35.9L17.8-35.9Q19.4-35.9 21.23-35.77 23.05-35.65 24.15-35.45L24.15-35.45 29.8-31.3 27.85-25.2 16-28.45Q13.95-28.45 12.98-27.6 12-26.75 12-25.55L12-25.55Q12-24.1 13.65-23.25 15.3-22.4 18.4-21.55L18.4-21.55Q23.3-20.2 26-18.55 28.7-16.9 29.8-14.83 30.9-12.75 30.9-10.15L30.9-10.15Q30.9-5.35 27.05-2.43 23.2 0.5 15.5 0.5ZM47.4 0.5L47.4 0.5Q43.55 0.5 40.55-0.65 37.55-1.8 35.85-4.5 34.15-7.2 34.15-11.8L34.15-11.8Q34.15-15.1 35.27-17.45 36.4-19.8 38.3-21.28 40.2-22.75 42.55-23.43 44.9-24.1 47.4-24.1L47.4-24.1Q51.7-24.1 54.02-23.25 56.35-22.4 57.1-21.9L57.1-21.9 59.6-13.95 58.6-10.85 43.1-10.85Q43.45-9 44.95-7.75 46.45-6.5 49.9-6.5L49.9-6.5Q52.6-6.5 54.55-7.1 56.5-7.7 57.6-8.15L57.6-8.15 57.6-1.45Q56.1-0.65 53.27-0.08 50.45 0.5 47.4 0.5ZM43.15-14.05L43.15-14.05 50.05-15.05 49.6-17.2Q49.25-17.4 48.57-17.5 47.9-17.6 47.4-17.6L47.4-17.6Q46-17.6 45.07-17 44.15-16.4 43.67-15.58 43.2-14.75 43.15-14.05ZM72.75 0L63.84 0 63.84-15.65 62.8-20.65 63.84-23.65 70.65-23.65 71.65-22.5Q71.65-22.5 72.34-22.93 73.05-23.35 74.32-23.75 75.59-24.15 77.3-24.15L77.3-24.15Q78.3-24.15 79.3-24 80.3-23.85 80.84-23.6L80.84-23.6 84.09-20.85 80.84-14.45 74.25-17.2 72.75-16.7 72.75 0ZM97.94-31.45L91.59-25.05 85.24-31.45 91.59-37.8 97.94-31.45ZM96.09 0L87.09 0 87.09-16.55 86.04-20.55 87.04-23.6 96.09-23.6 96.09 0ZM112.74 0.5L112.74 0.5Q106.64 0.5 103.29-2.4 99.94-5.3 99.94-11.8L99.94-11.8Q99.94-18.35 103.29-21.23 106.64-24.1 112.74-24.1L112.74-24.1Q118.99-24.1 122.22-21.23 125.44-18.35 125.44-11.8L125.44-11.8Q125.44-5.3 122.22-2.4 118.99 0.5 112.74 0.5ZM112.74-6L112.74-6Q114.79-6 115.59-7.53 116.39-9.05 116.39-11.8L116.39-11.8Q116.39-14.6 115.59-16.1 114.79-17.6 112.74-17.6L112.74-17.6Q110.64-17.6 109.81-16.1 108.99-14.6 108.99-11.8L108.99-11.8Q108.99-9.05 109.81-7.53 110.64-6 112.74-6ZM136.19 0.5L136.19 0.5Q133.19 0.5 131.56-0.65 129.94-1.8 129.31-3.98 128.69-6.15 128.69-9.2L128.69-9.2 128.69-23.65 137.69-23.65 137.69-10.5Q137.69-8.65 138.41-7.6 139.14-6.55 140.59-6.55L140.59-6.55Q141.94-6.55 143.06-7.7 144.19-8.85 144.19-11.05L144.19-11.05 144.19-23.65 153.19-23.65 153.19-8.05 154.24-3.05 153.19 0 144.74 0 144.74-2.45 144.24-2.7Q143.59-2.05 142.36-1.3 141.14-0.55 139.56-0.03 137.99 0.5 136.19 0.5ZM168.78 0.5L168.78 0.5Q165.13 0.5 162.34-0.25 159.53-1 157.98-1.8L157.98-1.8 157.98-8.75Q160.03-7.85 162.21-7.35 164.38-6.85 166.13-6.68 167.88-6.5 168.63-6.5L168.63-6.5Q169.48-6.5 169.84-6.78 170.19-7.05 170.19-7.45L170.19-7.45Q170.19-8 169.28-8.38 168.38-8.75 165.88-9.35L165.88-9.35Q163.84-9.85 161.91-10.63 159.98-11.4 158.76-12.8 157.53-14.2 157.53-16.55L157.53-16.55Q157.53-19.45 158.88-21.1 160.23-22.75 162.73-23.43 165.23-24.1 168.59-24.1L168.59-24.1Q170.48-24.1 172.13-23.9 173.78-23.7 174.48-23.6L174.48-23.6 179.13-20.6 176.88-15.25 168.13-17.15Q166.53-17.15 166.53-16.1L166.53-16.1Q166.53-15 168.84-14.45L168.84-14.45Q170.63-14.05 172.53-13.58 174.44-13.1 176.01-12.35 177.59-11.6 178.56-10.35 179.53-9.1 179.53-7.05L179.53-7.05Q179.53-3.25 176.81-1.38 174.09 0.5 168.78 0.5ZM208.53 0.5L208.53 0.5Q205.78 0.5 203.33-0.03 200.88-0.55 199.08-1.3 197.28-2.05 196.43-2.7L196.43-2.7 196.43-11.65Q198.83-10.3 202.48-9.13 206.13-7.95 210.58-7.95L210.58-7.95Q212.38-7.95 213.25-8.43 214.13-8.9 214.13-10.1L214.13-10.1Q214.13-11.4 212.16-12.28 210.18-13.15 205.93-14.45L205.93-14.45Q202.63-15.5 200.31-16.78 197.98-18.05 196.75-19.98 195.53-21.9 195.53-24.9L195.53-24.9Q195.53-28 197.13-30.5 198.73-33 202.13-34.45 205.53-35.9 210.83-35.9L210.83-35.9Q212.43-35.9 214.25-35.77 216.08-35.65 217.18-35.45L217.18-35.45 222.83-31.3 220.88-25.2 209.03-28.45Q206.98-28.45 206-27.6 205.03-26.75 205.03-25.55L205.03-25.55Q205.03-24.1 206.68-23.25 208.33-22.4 211.43-21.55L211.43-21.55Q216.33-20.2 219.03-18.55 221.73-16.9 222.83-14.83 223.93-12.75 223.93-10.15L223.93-10.15Q223.93-5.35 220.08-2.43 216.23 0.5 208.53 0.5ZM239.43 0.5L239.43 0.5Q235.98 0.5 233.2-0.65 230.43-1.8 228.8-4.5 227.18-7.2 227.18-11.8L227.18-11.8Q227.18-16.45 228.93-19.13 230.68-21.8 233.48-22.95 236.28-24.1 239.43-24.1L239.43-24.1Q242.18-24.1 244.15-23.9 246.13-23.7 246.78-23.55L246.78-23.55 250.68-19.15 246.68-13.7 240.93-17.1Q236.63-17.1 236.63-11.8L236.63-11.8Q236.63-9.05 237.93-7.78 239.23-6.5 241.93-6.5L241.93-6.5Q244.63-6.5 246.78-7.25 248.93-8 250.13-8.65L250.13-8.65 250.13-1.45Q248.58-0.65 246.05-0.08 243.53 0.5 239.43 0.5ZM262.18 0.5L262.18 0.5Q260.03 0.5 258.2-0.13 256.38-0.75 255.28-2.3 254.18-3.85 254.18-6.6L254.18-6.6Q254.18-9.1 255.43-10.75 256.68-12.4 258.82-13.2 260.98-14 263.68-14L263.68-14Q266.28-14 267.57-13.43 268.88-12.85 269.82-12.25L269.82-12.25 270.18-12.55Q270.18-14.05 269.93-15.05 269.68-16.05 268.78-16.57 267.88-17.1 265.98-17.1L265.98-17.1Q264.13-17.1 262.05-16.78 259.98-16.45 258.25-15.98 256.53-15.5 255.68-15.05L255.68-15.05 255.68-22.55Q257.23-23.1 260.1-23.58 262.98-24.05 267.18-24.05L267.18-24.05Q271.68-24.05 274.3-22.93 276.93-21.8 278.07-19.68 279.23-17.55 279.23-14.6L279.23-14.6 279.23-7.95 280.23-2.9 279.23 0.05 270.68 0.05 270.68-2.4 270.18-2.65Q269.78-2.25 268.78-1.5 267.78-0.75 266.13-0.13 264.48 0.5 262.18 0.5ZM266.43-6.05L266.43-6.05Q267.78-6.05 268.75-6.3 269.73-6.55 270.18-6.75L270.18-6.75 270.18-7.7Q270.18-8.35 269.25-8.95 268.32-9.55 266.38-9.55L266.38-9.55Q263.68-9.55 263.68-7.65L263.68-7.65Q263.68-6.85 264.28-6.45 264.88-6.05 266.43-6.05ZM294.87 0L285.87 0 285.87-16.2 283.22-21.2 285.87-23.6Q285.62-24.45 285.5-25.88 285.37-27.3 285.37-28.2L285.37-28.2Q285.37-31.05 286.7-33.2 288.02-35.35 290.37-36.58 292.72-37.8 295.67-37.8L295.67-37.8Q297.07-37.8 298.65-37.68 300.22-37.55 301.37-37.25L301.37-37.25 306.72-34.2 302.87-27.25 297.12-30.75Q295.42-30.75 294.62-29.53 293.82-28.3 293.82-26.8L293.82-26.8Q293.82-25.7 294.17-24.85 294.52-24 294.87-23.6L294.87-23.6 302.87-23.6 302.87-17.6 294.87-17.6 294.87-8.1 295.37-3.05 294.87 0ZM315.27 0L306.27 0 306.27-16.2 303.62-21.2 306.27-23.6Q306.02-24.45 305.89-25.88 305.77-27.3 305.77-28.2L305.77-28.2Q305.77-31.05 307.1-33.2 308.42-35.35 310.77-36.58 313.12-37.8 316.07-37.8L316.07-37.8Q317.47-37.8 319.05-37.68 320.62-37.55 321.77-37.25L321.77-37.25 327.12-34.2 323.27-27.25 317.52-30.75Q315.82-30.75 315.02-29.53 314.22-28.3 314.22-26.8L314.22-26.8Q314.22-25.7 314.57-24.85 314.92-24 315.27-23.6L315.27-23.6 323.27-23.6 323.27-17.6 315.27-17.6 315.27-8.1 315.77-3.05 315.27 0ZM337.67 0.5L337.67 0.5Q331.57 0.5 328.22-2.4 324.87-5.3 324.87-11.8L324.87-11.8Q324.87-18.35 328.22-21.23 331.57-24.1 337.67-24.1L337.67-24.1Q343.92-24.1 347.14-21.23 350.37-18.35 350.37-11.8L350.37-11.8Q350.37-5.3 347.14-2.4 343.92 0.5 337.67 0.5ZM337.67-6L337.67-6Q339.72-6 340.52-7.53 341.32-9.05 341.32-11.8L341.32-11.8Q341.32-14.6 340.52-16.1 339.72-17.6 337.67-17.6L337.67-17.6Q335.57-17.6 334.74-16.1 333.92-14.6 333.92-11.8L333.92-11.8Q333.92-9.05 334.74-7.53 335.57-6 337.67-6ZM363.67 0L354.67 0 354.62-27.4 353.62-32.4 354.67-35.4 363.67-35.4 363.67 0ZM377.41 0.5L377.41 0.5Q375.06 0.5 372.89-0.7 370.71-1.9 369.31-4.5 367.91-7.1 367.91-11.3L367.91-11.3Q367.91-15.95 369.29-18.75 370.66-21.55 372.86-22.83 375.06-24.1 377.41-24.1L377.41-24.1Q380.96-24.1 382.44-23.5 383.91-22.9 383.91-22.9L383.91-22.9 383.41-32.35 383.91-35.35 392.96-35.35 392.96-8 393.96-3 392.96 0.05 384.41 0.05 384.41-2.4 383.91-2.65Q383.91-2.65 383.16-1.88 382.41-1.1 380.96-0.3 379.51 0.5 377.41 0.5ZM381.16-6.55L381.16-6.55 383.91-7.25 383.91-14.55Q383.91-15.7 383.16-16.38 382.41-17.05 381.16-17.05L381.16-17.05Q379.31-17.05 378.36-15.83 377.41-14.6 377.41-11.8L377.41-11.8Q377.41-9.05 378.51-7.8 379.61-6.55 381.16-6.55ZM420.96 0L411.96 0 411.96-27.35 410.96-32.4 411.96-35.4 427.96-35.4Q431.61-35.4 434.53-34.27 437.46-33.15 439.18-30.48 440.91-27.8 440.91-23.1L440.91-23.1Q440.91-18.4 439.06-15.68 437.21-12.95 433.93-11.8 430.66-10.65 426.46-10.65L426.46-10.65 420.96-10.65 420.96-8.05 421.46-3.05 420.96 0ZM420.46-27.4L420.96-18.5 425.86-18.5Q428.46-18.5 430.01-19.48 431.56-20.45 431.56-23.1L431.56-23.1Q431.56-24.95 430.81-25.88 430.06-26.8 428.73-27.1 427.41-27.4 425.66-27.4L425.66-27.4 420.46-27.4ZM448.46 12.15L448.46 12.15 441.41 9.65 443.41 2.2 450.41 4.2Q452.56 4.2 453.53 3.08 454.51 1.95 455.01-0.05L455.01-0.05 449.86-0.05 444.36-17.15 443.41-23.65 452.91-23.65 455.66-7.15 456.66-7.15 459.41-23.65 468.91-23.65Q468.91-23.65 468.58-22.08 468.26-20.5 467.68-17.9 467.11-15.3 466.33-12.18 465.56-9.05 464.71-5.88 463.86-2.7 462.96-0.05L462.96-0.05Q461.61 4.1 459.73 6.8 457.86 9.5 455.16 10.83 452.46 12.15 448.46 12.15ZM481.05 0.5L481.05 0.5Q477.65 0.5 475.6-1.5 473.55-3.5 473.55-6.55L473.55-6.55 473.55-17.45 469.9-17.45 469.9-22.2 473.05-24.65 476.6-30.85 482.5-30.85 482.5-23.6 489.5-23.6 489.5-17.1 482.5-17.1 482.5-6.4 489.5-6.45 489.5-1Q489.5-1 488.33-0.63 487.15-0.25 485.25 0.13 483.35 0.5 481.05 0.5ZM503 0L494 0 494-27.4 493-32.4 494-35.4 503-35.4 503-27.3 502.5-21.75 503-21.5Q503.6-22.4 505.23-23.28 506.85-24.15 509.5-24.15L509.5-24.15Q514-24.15 516.25-21.6 518.5-19.05 518.5-14.45L518.5-14.45 518.5-7.95 519.55-3.05 518.5 0 509.5 0 509.5-13.15Q509.5-15.05 508.68-16.07 507.85-17.1 506.1-17.1L506.1-17.1 503-15.65 503 0ZM535.4 0.5L535.4 0.5Q529.3 0.5 525.95-2.4 522.6-5.3 522.6-11.8L522.6-11.8Q522.6-18.35 525.95-21.23 529.3-24.1 535.4-24.1L535.4-24.1Q541.65-24.1 544.87-21.23 548.1-18.35 548.1-11.8L548.1-11.8Q548.1-5.3 544.87-2.4 541.65 0.5 535.4 0.5ZM535.4-6L535.4-6Q537.45-6 538.25-7.53 539.05-9.05 539.05-11.8L539.05-11.8Q539.05-14.6 538.25-16.1 537.45-17.6 535.4-17.6L535.4-17.6Q533.3-17.6 532.47-16.1 531.65-14.6 531.65-11.8L531.65-11.8Q531.65-9.05 532.47-7.53 533.3-6 535.4-6ZM561.34 0L552.34 0 552.34-15.05 551.34-20.55 552.89-23.6 560.34-23.6 560.34-21.45 560.79-21.15Q561.34-21.65 562.32-22.33 563.29-23 564.69-23.55 566.09-24.1 567.84-24.1L567.84-24.1Q572.34-24.1 574.59-21.55 576.84-19 576.84-14.4L576.84-14.4 576.84-8.05 577.89-3.05 576.84 0 567.84 0 567.84-13.1Q567.84-15 567.02-16.03 566.19-17.05 564.44-17.05L564.44-17.05 561.34-16.1 561.34 0Z" opacity="1" transform="matrix(1,0,0,1,0,0)" fill="#0074d9" class="wordmark-text-0" data-fill-palette-color="primary" id="text-0"></path></svg></g></svg></g></svg></g></svg></g><g></g></svg></g></svg></g></svg></g></svg></g><defs></defs></svg><rect width="395.52" height="247.2" fill="none" stroke="none" visibility="hidden"></rect></g></svg></g></svg>
